<?xml version="1.0" encoding="utf-8"?><svg xmlns="http://www.w3.org/2000/svg" xmlns:xlink="http://www.w3.org/1999/xlink"><symbol viewBox="0 0 20 20" id="angle-left" xmlns="http://www.w3.org/2000/svg"><g clip-path="url(#aclip0_49_3948)"><path d="M14.786 18.126l-7.613-7.81 7.613-7.809a.747.747 0 000-1.044.711.711 0 00-1.016 0l-8.1 8.308a.781.781 0 000 1.09l8.099 8.309a.71.71 0 001.018 0 .747.747 0 000-1.044h-.001z"/></g><defs><clipPath id="aclip0_49_3948"><path transform="rotate(90 10 10)" d="M0 0h20v20H0z"/></clipPath></defs></symbol><symbol viewBox="0 0 20 20" id="angle-right" xmlns="http://www.w3.org/2000/svg"><path d="M5.214 1.874l7.613 7.81-7.613 7.809a.747.747 0 000 1.044.711.711 0 001.016 0l8.1-8.308a.781.781 0 000-1.09L6.23.83a.71.71 0 00-1.018 0 .747.747 0 000 1.044h.001z"/></symbol><symbol viewBox="0 0 16 16" id="facebook" xmlns="http://www.w3.org/2000/svg"><path d="M16 8.049c0-4.446-3.582-8.05-8-8.05C3.58 0-.002 3.603-.002 8.05c0 4.017 2.926 7.347 6.75 7.951v-5.625h-2.03V8.05H6.75V6.275c0-2.017 1.195-3.131 3.022-3.131.876 0 1.791.157 1.791.157v1.98h-1.009c-.993 0-1.303.621-1.303 1.258v1.51h2.218l-.354 2.326H9.25V16c3.824-.604 6.75-3.934 6.75-7.951z"/></symbol><symbol viewBox="0 0 16 16" id="instagram" xmlns="http://www.w3.org/2000/svg"><path d="M8 0C5.829 0 5.556.01 4.703.048 3.85.088 3.269.222 2.76.42a3.917 3.917 0 00-1.417.923A3.927 3.927 0 00.42 2.76C.222 3.268.087 3.85.048 4.7.01 5.555 0 5.827 0 8.001c0 2.172.01 2.444.048 3.297.04.852.174 1.433.372 1.942.205.526.478.972.923 1.417.444.445.89.719 1.416.923.51.198 1.09.333 1.942.372C5.555 15.99 5.827 16 8 16s2.444-.01 3.298-.048c.851-.04 1.434-.174 1.943-.372a3.916 3.916 0 001.416-.923c.445-.445.718-.891.923-1.417.197-.509.332-1.09.372-1.942C15.99 10.445 16 10.173 16 8s-.01-2.445-.048-3.299c-.04-.851-.175-1.433-.372-1.941a3.926 3.926 0 00-.923-1.417A3.911 3.911 0 0013.24.42c-.51-.198-1.092-.333-1.943-.372C10.443.01 10.172 0 7.998 0h.003zm-.717 1.442h.718c2.136 0 2.389.007 3.232.046.78.035 1.204.166 1.486.275.373.145.64.319.92.599.28.28.453.546.598.92.11.281.24.705.275 1.485.039.843.047 1.096.047 3.231s-.008 2.389-.047 3.232c-.035.78-.166 1.203-.275 1.485a2.47 2.47 0 01-.599.919c-.28.28-.546.453-.92.598-.28.11-.704.24-1.485.276-.843.038-1.096.047-3.232.047s-2.39-.009-3.233-.047c-.78-.036-1.203-.166-1.485-.276a2.478 2.478 0 01-.92-.598 2.48 2.48 0 01-.6-.92c-.109-.281-.24-.705-.275-1.485-.038-.843-.046-1.096-.046-3.233 0-2.136.008-2.388.046-3.231.036-.78.166-1.204.276-1.486.145-.373.319-.64.599-.92.28-.28.546-.453.92-.598.282-.11.705-.24 1.485-.276.738-.034 1.024-.044 2.515-.045v.002zm4.988 1.328a.96.96 0 100 1.92.96.96 0 000-1.92zm-4.27 1.122a4.109 4.109 0 100 8.217 4.109 4.109 0 000-8.217zm0 1.441a2.667 2.667 0 110 5.334 2.667 2.667 0 010-5.334z"/></symbol><symbol viewBox="0 0 242 402" id="symbol" xmlns="http://www.w3.org/2000/svg"><path d="M121 1c-9.32 10.58-15 24.42-15 39.62.55 33.37 4.64 66.7 5 100 .74 31.1-8.58 60.3-19.92 88.8-3.78 7.87-7.86 15.57-11.95 23.29l-12-2.42c-10.83-2.16-17.87-12.69-15.7-23.52 1.89-9.47 10.23-16.1 19.53-16.1l4.38.47-9.77-81.6c-3.19-36.3-21.93-68.2-49.5-88.9-4.74-3.56-9.77-6.82-15-9.69v289.7h66.88c5 27.1 19.94 50.8 40.94 67 4.99 3.44 9.18 7.98 12.19 13.28 3-5.3 7.19-9.84 12.19-13.28 21-16.24 35.94-39.89 40.94-67h66.88V30.95c-5.23 2.87-10.26 6.13-15 9.69-27.6 20.73-46.3 52.6-49.5 88.9l-9.77 81.6 4.38-.47c9.3.04 17.64 6.62 19.53 16.1 2.16 10.83-4.88 21.35-15.7 23.52l-12 2.42c-4.09-7.71-8.18-15.41-11.95-23.29-11.35-28.48-20.67-57.68-19.93-88.8.36-33.4 4.45-66.7 5-100 0-15.2-5.68-29-15-39.62zM21 72.7c12.94 15.19 21.63 34.1 24.2 54.93l8 67.3c-10.25 5.1-18 14.46-20.94 25.79H20.93v-148zm200 0v148h-11.33c-2.92-11.32-10.69-20.68-20.94-25.79l8-67.3c2.59-20.81 11.28-39.74 24.2-54.94zM121 208c5.37 17.57 12.76 34.3 21.95 49.78-8.74 2.65-16.34 7.81-21.95 14.76-5.61-6.95-13.21-12.1-21.95-14.77 9.19-15.51 16.58-32.2 21.95-49.77zM21 240.74h11.33c3.57 13.81 14.35 24.71 28 28.52l9.61 2.19c-2.57 9.32-3.98 19.1-3.98 29.3h-45v-60zm188.7 0h11.33v60h-45c0-10.14-1.41-19.97-3.98-29.3l9.61-2.19c13.7-3.81 24.47-14.72 28-28.52zm-120.2 35.3c12.13 1.71 21.48 12.1 21.48 24.69h-25c0-8.57 1.27-16.84 3.52-24.69zm62.97 0c2.25 7.85 3.52 16.1 3.52 24.69h-25c0-12.61 9.35-22.98 21.48-24.69zm-64.2 44.7H111v42.1c-11-11.55-19-26-22.73-42.1zm42.73 0h22.73c-3.68 16.1-11.7 30.57-22.73 42.1v-42.1z"/></symbol><symbol viewBox="0 0 16 16" id="telegram" xmlns="http://www.w3.org/2000/svg"><path d="M16 8A8 8 0 110 8a8 8 0 0116 0zM8.287 5.906c-.778.324-2.334.994-4.666 2.01-.378.15-.577.298-.595.442-.03.243.275.339.69.47l.175.055c.408.133.958.288 1.243.294.26.006.549-.1.868-.32 2.179-1.471 3.304-2.214 3.374-2.23.05-.012.12-.026.166.016.047.041.042.12.037.141-.03.129-1.227 1.241-1.846 1.817-.193.18-.33.307-.358.336a8.154 8.154 0 01-.188.186c-.38.366-.664.64.015 1.088.327.216.589.393.85.571.284.194.568.387.936.629.093.06.183.125.27.187.331.236.63.448.997.414.214-.02.435-.22.547-.82.265-1.417.786-4.486.906-5.751a1.426 1.426 0 00-.013-.315.337.337 0 00-.114-.217.526.526 0 00-.31-.093c-.3.005-.763.166-2.984 1.09z"/></symbol><symbol viewBox="0 0 16 16" id="youtube" xmlns="http://www.w3.org/2000/svg"><path d="M8.051 1.999h.089c.822.003 4.987.033 6.11.335a2.01 2.01 0 011.415 1.42c.101.38.172.883.22 1.402l.01.104.022.26.008.104c.065.914.073 1.77.074 1.957v.075c-.001.194-.01 1.108-.082 2.06l-.008.105-.009.104c-.05.572-.124 1.14-.235 1.558a2.007 2.007 0 01-1.415 1.42c-1.16.312-5.569.334-6.18.335h-.142c-.309 0-1.587-.006-2.927-.052l-.17-.006-.087-.004-.171-.007-.171-.007c-1.11-.049-2.167-.128-2.654-.26a2.007 2.007 0 01-1.415-1.419c-.111-.417-.185-.986-.235-1.558L.09 9.82l-.008-.104A31.4 31.4 0 010 7.68v-.123c.002-.215.01-.958.064-1.778l.007-.103.003-.052.008-.104.022-.26.01-.104c.048-.519.119-1.023.22-1.402a2.007 2.007 0 011.415-1.42c.487-.13 1.544-.21 2.654-.26l.17-.007.172-.006.086-.003.171-.007A99.788 99.788 0 017.858 2h.193zM6.4 5.209v4.818l4.157-2.408L6.4 5.209z"/></symbol></svg>